<svg width="147" height="66" viewBox="0 0 147 66" fill="none" xmlns="http://www.w3.org/2000/svg">
<g clip-path="url(#clip0_799_12204)">
<path d="M23.1 0C10.3 0 0 8.5 0 24.8C0 41.1 23.1 65.3 23.1 65.3C23.1 65.3 46.2 41.1 46.2 24.8C46.2 8.5 35.8 0 23.1 0ZM23.1 40.6C13.3 40.6 5.4 32.7 5.4 23C5.4 13.3 13.3 5.4 23.1 5.4C32.9 5.4 40.8 13.3 40.8 23C40.8 32.7 32.9 40.6 23.1 40.6Z" fill="#103977"/>
<path d="M26.9008 20.0997C26.7008 20.2997 26.5008 20.5997 26.4008 20.8997C26.3008 21.0997 26.3008 21.1997 26.3008 21.3997C26.3008 21.4997 26.3008 21.5997 26.3008 21.6997C26.3008 21.7997 26.3008 21.8997 26.3008 21.9997C26.4008 21.9997 26.5008 21.9997 26.6008 21.9997C26.7008 21.9997 26.8008 21.9997 26.9008 21.8997C27.1008 21.7997 27.2008 21.7997 27.4008 21.6997C27.7008 21.4997 27.9008 21.2997 28.1008 21.0997C28.3008 20.8997 28.5008 20.5997 28.6008 20.2997C28.7008 20.0997 28.7008 19.9997 28.7008 19.7997C28.7008 19.6997 28.7008 19.5997 28.7008 19.4997C28.7008 19.3997 28.7008 19.2997 28.7008 19.1997C28.6008 19.1997 28.5008 19.1997 28.4008 19.1997C28.3008 19.1997 28.2008 19.1997 28.1008 19.2997C27.9008 19.3997 27.8008 19.3997 27.6008 19.4997C27.4008 19.6997 27.1008 19.8997 26.9008 20.0997Z" fill="#0796D6"/>
<path d="M26.2 16.0999C26.2 16.1999 26.2 16.2999 26.2 16.3999C26.2 16.4999 26.2 16.5999 26.3 16.6999C26.4 16.6999 26.5 16.5999 26.6 16.5999C26.7 16.5999 26.8 16.4999 26.8 16.4999C26.9 16.3999 27.1 16.2999 27.2 16.1999C27.4 15.9999 27.6 15.6999 27.7 15.3999C27.8 15.0999 27.9 14.7999 28 14.4999C28 14.2999 28 14.1999 28 13.9999C28 13.8999 28 13.7999 28 13.6999C28 13.5999 28 13.4999 27.9 13.3999C27.8 13.3999 27.7 13.4999 27.6 13.4999C27.5 13.4999 27.4 13.5999 27.4 13.5999C27.3 13.6999 27.1 13.7999 27 13.8999C26.8 14.0999 26.6 14.3999 26.5 14.6999C26.4 14.9999 26.3 15.2999 26.2 15.5999C26.1 15.6999 26.1 15.8999 26.2 16.0999Z" fill="#0796D6"/>
<path d="M26.6996 19.4999C26.7996 19.3999 26.9996 19.2999 27.0996 19.1999C27.2996 18.9999 27.4996 18.6999 27.5996 18.3999C27.6996 18.0999 27.7996 17.7999 27.7996 17.4999C27.7996 17.2999 27.7996 17.1999 27.7996 16.9999C27.7996 16.8999 27.7996 16.7999 27.7996 16.6999C27.7996 16.5999 27.7996 16.4999 27.6996 16.3999C27.5996 16.3999 27.4996 16.4999 27.3996 16.4999C27.2996 16.4999 27.1996 16.5999 27.1996 16.6999C27.0996 16.7999 26.8996 16.8999 26.7996 16.9999C26.5996 17.1999 26.3996 17.4999 26.2996 17.7999C26.1996 18.0999 26.0996 18.3999 26.0996 18.6999C26.0996 18.8999 26.0996 18.9999 26.0996 19.1999C26.0996 19.2999 26.0996 19.3999 26.0996 19.4999C26.0996 19.5999 26.0996 19.6999 26.1996 19.7999C26.2996 19.7999 26.3996 19.6999 26.4996 19.6999C26.5996 19.5999 26.6996 19.5999 26.6996 19.4999Z" fill="#0796D6"/>
<path d="M25.0004 13.6C25.0004 13.7 25.1004 13.8 25.1004 13.9C25.1004 14 25.2004 14.1 25.3004 14.2C25.4004 14.1 25.5004 14.1 25.5004 14C25.6004 13.9 25.6004 13.9 25.7004 13.8C25.8004 13.7 25.9004 13.5 26.0004 13.4C26.1004 13.1 26.2004 12.8 26.3004 12.5C26.3004 12.2 26.3004 11.9 26.3004 11.6C26.3004 11.4 26.2004 11.3 26.2004 11.1C26.2004 11 26.1004 10.9 26.1004 10.8C26.1004 10.7 26.0004 10.6 25.9004 10.5C25.8004 10.6 25.7004 10.6 25.7004 10.7C25.6004 10.8 25.6004 10.8 25.5004 10.9C25.4004 11 25.3004 11.2 25.2004 11.3C25.1004 11.6 25.0004 11.9 24.9004 12.2C24.9004 12.5 24.9004 12.8 24.9004 13.1C24.9004 13.2 24.9004 13.4 25.0004 13.6Z" fill="#0796D6"/>
<path d="M28.8996 18.5996C28.9996 18.5996 29.0996 18.4996 29.1996 18.4996C29.3996 18.3996 29.4996 18.2996 29.5996 18.1996C29.8996 17.9996 30.0996 17.7996 30.2996 17.4996C30.4996 17.1996 30.5996 16.9996 30.6996 16.6996C30.6996 16.4996 30.7996 16.3996 30.7996 16.1996C30.7996 16.0996 30.7996 15.9996 30.7996 15.8996C30.7996 15.7996 30.7996 15.6996 30.7996 15.5996C30.6996 15.5996 30.5996 15.5996 30.4996 15.6996C30.3996 15.6996 30.2996 15.7996 30.1996 15.7996C29.9996 15.8996 29.8996 15.9996 29.7996 16.0996C29.4996 16.2996 29.2996 16.4996 29.0996 16.7996C28.8996 17.0996 28.7996 17.2996 28.6996 17.5996C28.6996 17.7996 28.5996 17.8996 28.5996 18.0996C28.5996 18.1996 28.5996 18.2996 28.5996 18.3996C28.5996 18.4996 28.5996 18.5996 28.5996 18.6996C28.6996 18.5996 28.7996 18.5996 28.8996 18.5996Z" fill="#0796D6"/>
<path d="M23.1004 27.4C24.3004 27.4 25.3004 26.4 25.3004 25.2C25.3004 24 24.3004 23 23.1004 23C21.9004 23 20.9004 24 20.9004 25.2C20.9004 26.4 21.9004 27.4 23.1004 27.4Z" fill="#0796D6"/>
<path d="M24.1 18.1996C24.1 18.2996 24.2 18.3996 24.2 18.4996C24.2 18.5996 24.3 18.6996 24.3 18.7996C24.4 18.6996 24.5 18.6996 24.5 18.5996C24.6 18.4996 24.6 18.4996 24.7 18.3996C24.8 18.2996 24.9 18.0996 25 17.9996C25.2 17.6996 25.3 17.3996 25.4 17.0996C25.5 16.7996 25.5 16.4996 25.5 16.1996C25.5 15.9996 25.5 15.8996 25.4 15.6996C25.4 15.5996 25.3 15.4996 25.3 15.3996C25.3 15.2996 25.2 15.1996 25.2 15.0996C25.1 15.1996 25 15.1996 25 15.2996C24.9 15.3996 24.9 15.3996 24.8 15.4996C24.7 15.5996 24.6 15.7996 24.5 15.8996C24.3 16.1996 24.2 16.4996 24.1 16.7996C24 16.9996 24 17.3996 24 17.6996C24 17.7996 24.1 17.9996 24.1 18.1996Z" fill="#0796D6"/>
<path d="M25.6996 20.1996C25.6996 19.9996 25.6996 19.8996 25.5996 19.6996C25.5996 19.5996 25.5996 19.4996 25.4996 19.3996C25.4996 19.2996 25.3996 19.1996 25.3996 19.0996C25.2996 19.0996 25.1996 19.1996 25.0996 19.2996C24.9996 19.3996 24.9996 19.3996 24.8996 19.4996C24.7996 19.5996 24.6996 19.6996 24.5996 19.8996C24.3996 20.1996 24.2996 20.3996 24.1996 20.6996C24.0996 20.9996 24.0996 21.2996 24.0996 21.5996C24.0996 21.7996 24.0996 21.8996 24.1996 22.0996C24.1996 22.1996 24.1996 22.2996 24.2996 22.3996C24.2996 22.4996 24.3996 22.5996 24.3996 22.6996C24.4996 22.6996 24.5996 22.5996 24.6996 22.4996C24.7996 22.3996 24.7996 22.3996 24.8996 22.2996C24.9996 22.1996 25.0996 22.0996 25.1996 21.8996C25.3996 21.5996 25.4996 21.3996 25.5996 21.0996C25.6996 20.8996 25.6996 20.5996 25.6996 20.1996Z" fill="#0796D6"/>
<path d="M28.6996 15.3997C28.7996 15.3997 28.8996 15.2997 28.9996 15.2997C29.0996 15.2997 29.1996 15.1997 29.1996 15.1997C29.3996 15.0997 29.4996 14.9997 29.5996 14.8997C29.7996 14.6997 29.9996 14.3997 30.1996 14.1997C30.3996 13.8997 30.4996 13.5997 30.4996 13.2997C30.4996 13.0997 30.5996 12.9997 30.5996 12.7997C30.5996 12.6997 30.5996 12.5997 30.5996 12.4997C30.5996 12.3997 30.5996 12.2997 30.4996 12.1997C30.3996 12.1997 30.2996 12.2997 30.1996 12.2997C30.0996 12.2997 29.9996 12.3997 29.9996 12.3997C29.7996 12.4997 29.6996 12.5997 29.5996 12.6997C29.3996 12.8997 29.1996 13.1997 28.9996 13.3997C28.7996 13.6997 28.6996 13.9997 28.6996 14.2997C28.6996 14.4997 28.5996 14.5997 28.5996 14.7997C28.5996 14.8997 28.5996 14.9997 28.5996 15.0997C28.6996 15.1997 28.6996 15.2997 28.6996 15.3997Z" fill="#0796D6"/>
<path d="M20.6 19.6996C20.6 19.8996 20.5 19.9996 20.5 20.1996C20.5 20.4996 20.5 20.7996 20.6 21.0996C20.7 21.3996 20.8 21.6996 21 21.8996C21.1 21.9996 21.2 22.1996 21.3 22.2996C21.4 22.3996 21.4 22.3996 21.5 22.4996C21.6 22.5996 21.7 22.5996 21.8 22.6996C21.9 22.5996 21.9 22.4996 21.9 22.3996C21.9 22.2996 22 22.1996 22 22.0996C22 21.8996 22.1 21.7996 22.1 21.5996C22.1 21.2996 22.1 20.9996 22 20.6996C21.9 20.3996 21.8 20.0996 21.6 19.8996C21.5 19.7996 21.4 19.5996 21.3 19.4996C21.2 19.3996 21.2 19.3996 21.1 19.2996C21 19.1996 20.9 19.1996 20.8 19.0996C20.7 19.1996 20.7 19.2996 20.7 19.3996C20.6 19.5996 20.6 19.5996 20.6 19.6996Z" fill="#0796D6"/>
<path d="M31.3996 23.4996C31.4996 23.3996 31.6996 23.2996 31.7996 23.1996C31.8996 23.0996 31.8996 23.0996 31.9996 22.9996C32.0996 22.8996 32.0996 22.8996 32.1996 22.7996C32.0996 22.7996 31.9996 22.6996 31.8996 22.6996C31.7996 22.6996 31.6996 22.6996 31.5996 22.5996C31.3996 22.5996 31.2996 22.5996 31.0996 22.5996C30.7996 22.5996 30.4996 22.6996 30.1996 22.7996C29.8996 22.8996 29.5996 22.9996 29.3996 23.1996C29.2996 23.2996 29.0996 23.3996 28.9996 23.4996C28.8996 23.5996 28.8996 23.5996 28.7996 23.6996C28.6996 23.7996 28.6996 23.7996 28.5996 23.8996C28.6996 23.8996 28.7996 23.9996 28.8996 23.9996C28.9996 23.9996 29.0996 23.9996 29.1996 24.0996C29.3996 24.0996 29.4996 24.0996 29.6996 24.0996C29.9996 24.0996 30.2996 23.9996 30.5996 23.8996C30.8996 23.7996 31.0996 23.6996 31.3996 23.4996Z" fill="#0796D6"/>
<path d="M31.2992 22C31.5992 21.9 31.8992 21.8 32.1992 21.6C32.4992 21.4 32.6992 21.2 32.8992 21C32.9992 20.9 33.0992 20.7 33.1992 20.6C33.1992 20.5 33.2992 20.4 33.2992 20.3C33.2992 20.2 33.3992 20.1 33.3992 20C33.2992 20 33.1992 20 33.0992 20C32.9992 20 32.8992 20 32.7992 20C32.5992 20 32.4992 20 32.2992 20.1C31.9992 20.2 31.6992 20.3 31.3992 20.5C31.0992 20.7 30.8992 20.9 30.6992 21.1C30.5992 21.2 30.4992 21.4 30.3992 21.5C30.3992 21.6 30.2992 21.7 30.2992 21.8C30.2992 21.9 30.1992 22 30.1992 22.1C30.2992 22.1 30.3992 22.1 30.4992 22.1C30.5992 22.1 30.6992 22.1 30.7992 22.1C30.9992 22.1 31.0992 22.1 31.2992 22Z" fill="#0796D6"/>
<path d="M27.6 23.6996C27.9 23.5996 28.2 23.4996 28.4 23.2996C28.7 23.0996 28.9 22.8996 29.1 22.5996C29.2 22.4996 29.3 22.2996 29.4 22.1996C29.4 22.0996 29.5 21.9996 29.5 21.8996C29.5 21.7996 29.6 21.6996 29.6 21.5996C29.5 21.5996 29.4 21.5996 29.3 21.5996C29.2 21.5996 29.1 21.5996 29 21.5996C28.8 21.5996 28.7 21.6996 28.5 21.6996C28.2 21.7996 27.9 21.8996 27.7 22.0996C27.4 22.2996 27.2 22.4996 27 22.7996C26.9 22.8996 26.8 23.0996 26.7 23.1996C26.7 23.2996 26.6 23.3996 26.6 23.4996C26.6 23.5996 26.5 23.6996 26.5 23.7996C26.6 23.7996 26.7 23.7996 26.8 23.7996C26.9 23.7996 27 23.7996 27.1 23.7996C27.3 23.7996 27.4 23.7996 27.6 23.6996Z" fill="#0796D6"/>
<path d="M32.1 24.7999C32.3 24.7999 32.4 24.8999 32.6 24.8999C32.9 24.8999 33.2 24.8999 33.5 24.7999C33.8 24.6999 34.1 24.5999 34.4 24.3999C34.5 24.2999 34.7 24.1999 34.8 24.0999C34.9 23.9999 34.9 23.9999 35 23.8999C35.1 23.7999 35.1 23.6999 35.2 23.6999C35.1 23.5999 35 23.5999 34.9 23.5999C34.8 23.5999 34.7 23.4999 34.6 23.4999C34.4 23.4999 34.3 23.3999 34.1 23.3999C33.8 23.3999 33.5 23.3999 33.2 23.4999C32.9 23.5999 32.6 23.6999 32.3 23.8999C32.2 23.9999 32 24.0999 31.9 24.1999C31.8 24.2999 31.8 24.2999 31.7 24.3999C31.6 24.4999 31.6 24.5999 31.5 24.5999C31.6 24.6999 31.7 24.6999 31.8 24.6999C31.9 24.7999 32 24.7999 32.1 24.7999Z" fill="#0796D6"/>
<path d="M36.4992 22.4C36.3992 22.5 36.1992 22.6 36.0992 22.7C35.9992 22.8 35.9992 22.8 35.8992 22.9C35.7992 23 35.7992 23.1 35.6992 23.1C35.7992 23.2 35.8992 23.2 35.9992 23.2C36.0992 23.2 36.1992 23.3 36.2992 23.3C36.4992 23.4 36.5992 23.4 36.7992 23.4C37.0992 23.4 37.3992 23.4 37.6992 23.3C37.9992 23.2 38.2992 23.1 38.5992 22.9C38.6992 22.8 38.8992 22.7 38.9992 22.6C39.0992 22.5 39.0992 22.5 39.1992 22.4C39.2992 22.3 39.2992 22.3 39.3992 22.2C39.2992 22.1 39.1992 22.1 39.0992 22.1C38.9992 22.1 38.8992 22 38.7992 22C38.5992 22 38.4992 22 38.2992 22C37.9992 22 37.6992 22 37.3992 22.1C36.9992 22.1 36.7992 22.2 36.4992 22.4Z" fill="#0796D6"/>
<path d="M32.5992 17.8998C32.3992 18.0998 32.1992 18.2998 31.9992 18.5998C31.8992 18.6998 31.7992 18.8998 31.7992 19.0998C31.7992 19.1998 31.6992 19.2998 31.6992 19.3998C31.6992 19.4998 31.6992 19.5998 31.6992 19.6998C31.7992 19.6998 31.8992 19.6998 31.9992 19.6998C32.0992 19.6998 32.1992 19.6998 32.2992 19.6998C32.4992 19.6998 32.5992 19.5998 32.7992 19.5998C33.0992 19.4998 33.3992 19.2998 33.5992 19.0998C33.7992 18.8998 33.9992 18.6998 34.1992 18.3998C34.2992 18.2998 34.3992 18.0998 34.3992 17.8998C34.3992 17.7998 34.4992 17.6998 34.4992 17.5998C34.4992 17.4998 34.4992 17.3998 34.4992 17.2998C34.3992 17.2998 34.2992 17.2998 34.1992 17.2998C34.0992 17.2998 33.9992 17.2998 33.8992 17.2998C33.6992 17.2998 33.5992 17.3998 33.3992 17.4998C33.0992 17.4998 32.8992 17.6998 32.5992 17.8998Z" fill="#0796D6"/>
<path d="M35.7996 21.4998C35.8996 21.3998 35.8996 21.3998 35.9996 21.2998C36.0996 21.1998 36.0996 21.0998 36.0996 20.9998C35.9996 20.9998 35.8996 20.8998 35.7996 20.8998C35.6996 20.8998 35.5996 20.8998 35.4996 20.7998C35.2996 20.7998 35.1996 20.7998 34.9996 20.7998C34.6996 20.7998 34.3996 20.8998 34.0996 20.9998C33.7996 21.0998 33.4996 21.2998 33.2996 21.4998C33.1996 21.5998 33.0996 21.6998 32.8996 21.8998C32.7996 21.9998 32.7996 21.9998 32.6996 22.0998C32.5996 22.1998 32.5996 22.2998 32.5996 22.3998C32.6996 22.3998 32.7996 22.4998 32.8996 22.4998C32.9996 22.4998 33.0996 22.4998 33.1996 22.5998C33.3996 22.5998 33.4996 22.5998 33.6996 22.5998C33.9996 22.5998 34.2996 22.4998 34.5996 22.3998C34.8996 22.2998 35.1996 22.0998 35.3996 21.8998C35.4996 21.6998 35.6996 21.5998 35.7996 21.4998Z" fill="#0796D6"/>
<path d="M30.3004 18.4997C30.0004 18.6997 29.8004 18.8997 29.6004 19.0997C29.4004 19.2997 29.2004 19.5997 29.1004 19.8997C29.0004 19.9997 29.0004 20.1997 28.9004 20.3997C28.9004 20.4997 28.9004 20.5997 28.9004 20.6997C28.9004 20.7997 28.9004 20.8997 28.9004 20.9997C29.0004 20.9997 29.1004 20.9997 29.2004 20.9997C29.3004 20.9997 29.4004 20.9997 29.5004 20.8997C29.7004 20.7997 29.8004 20.7997 30.0004 20.6997C30.3004 20.4997 30.5004 20.2997 30.7004 20.0997C30.9004 19.8997 31.1004 19.5997 31.2004 19.2997C31.3004 19.0997 31.3004 18.9997 31.4004 18.7997C31.4004 18.6997 31.4004 18.5997 31.4004 18.4997C31.4004 18.3997 31.4004 18.2997 31.4004 18.1997C31.3004 18.1997 31.2004 18.1997 31.1004 18.1997C31.0004 18.1997 30.9004 18.1997 30.8004 18.2997C30.6004 18.3997 30.5004 18.3997 30.3004 18.4997Z" fill="#0796D6"/>
<path d="M31.7004 17.3C31.8004 17.3 31.9004 17.2 32.0004 17.2C32.2004 17.1 32.3004 17.1 32.5004 17C32.8004 16.8 33.0004 16.6 33.2004 16.4C33.4004 16.2 33.6004 15.9 33.7004 15.6C33.8004 15.4 33.8004 15.3 33.8004 15.1C33.8004 15 33.8004 14.9 33.8004 14.8C33.8004 14.7 33.8004 14.6 33.8004 14.5C33.7004 14.5 33.6004 14.5 33.5004 14.6C33.4004 14.6 33.3004 14.7 33.2004 14.7C33.0004 14.8 32.9004 14.8 32.7004 14.9C32.4004 15.1 32.2004 15.3 32.0004 15.5C31.8004 15.7 31.6004 16 31.5004 16.3C31.4004 16.5 31.4004 16.6 31.4004 16.8C31.4004 16.9 31.4004 17 31.4004 17.1C31.4004 17.2 31.4004 17.3 31.4004 17.4C31.5004 17.3 31.6004 17.3 31.7004 17.3Z" fill="#0796D6"/>
<path d="M34.2992 19.6C34.2992 19.7 34.1992 19.8 34.1992 19.9C34.2992 19.9 34.3992 19.9 34.4992 20C34.5992 20 34.6992 20 34.7992 20C34.9992 20 35.0992 20 35.2992 19.9C35.5992 19.8 35.8992 19.7 36.1992 19.6C36.4992 19.4 36.6992 19.2 36.8992 19C36.9992 18.9 37.0992 18.7 37.1992 18.6C37.1992 18.5 37.2992 18.4 37.2992 18.4C37.2992 18.3 37.3992 18.2 37.3992 18.1C37.2992 18.1 37.1992 18.1 37.0992 18C36.9992 18 36.8992 18 36.7992 18C36.5992 18 36.4992 18 36.2992 18.1C35.9992 18.2 35.6992 18.3 35.3992 18.4C35.0992 18.6 34.8992 18.8 34.6992 19C34.5992 19.1 34.4992 19.3 34.3992 19.4C34.2992 19.5 34.2992 19.5 34.2992 19.6Z" fill="#0796D6"/>
<path d="M27.1996 25.8999C27.3996 25.9999 27.4996 25.9999 27.6996 25.9999C27.9996 26.0999 28.2996 26.0999 28.5996 25.9999C28.8996 25.9999 29.1996 25.8999 29.4996 25.6999C29.5996 25.5999 29.7996 25.4999 29.8996 25.3999C29.9996 25.2999 29.9996 25.2999 30.0996 25.1999C30.1996 25.0999 30.1996 25.0999 30.2996 24.9999C30.1996 24.8999 30.0996 24.8999 29.9996 24.7999C29.8996 24.7999 29.7996 24.6999 29.6996 24.6999C29.4996 24.5999 29.3996 24.5999 29.1996 24.5999C28.8996 24.4999 28.5996 24.4999 28.2996 24.5999C27.9996 24.5999 27.6996 24.6999 27.3996 24.8999C27.2996 24.9999 27.0996 25.0999 26.9996 25.1999C26.8996 25.2999 26.8996 25.2999 26.7996 25.3999C26.6996 25.4999 26.6996 25.4999 26.5996 25.5999C26.6996 25.6999 26.7996 25.6999 26.8996 25.7999C27.0996 25.7999 27.1996 25.8999 27.1996 25.8999Z" fill="#0796D6"/>
<path d="M12.5 14.9999C12.5 15.1999 12.6 15.2999 12.6 15.4999C12.7 15.7999 12.9 16.0999 13.1 16.2999C13.3 16.4999 13.5 16.7999 13.8 16.8999C13.9 16.9999 14.1 17.0999 14.3 17.0999C14.4 17.0999 14.5 17.1999 14.6 17.1999C14.7 17.1999 14.8 17.1999 14.9 17.2999C14.9 17.1999 14.9 17.0999 14.9 16.9999C14.9 16.8999 14.9 16.7999 14.9 16.6999C14.9 16.4999 14.8 16.3999 14.8 16.1999C14.7 15.8999 14.5 15.5999 14.3 15.3999C14.1 15.1999 13.9 14.8999 13.6 14.7999C13.5 14.6999 13.3 14.5999 13.1 14.5999C13 14.5999 12.9 14.4999 12.8 14.4999C12.7 14.4999 12.6 14.4999 12.5 14.3999C12.5 14.4999 12.5 14.5999 12.5 14.6999C12.5 14.7999 12.5 14.8999 12.5 14.9999Z" fill="#0796D6"/>
<path d="M19.6992 23.4996C19.6992 23.3996 19.5992 23.2996 19.5992 23.1996C19.4992 22.9996 19.3992 22.8996 19.2992 22.7996C19.0992 22.4996 18.8992 22.2996 18.5992 22.0996C18.2992 21.8996 18.0992 21.7996 17.7992 21.6996C17.5992 21.6996 17.4992 21.5996 17.2992 21.5996C17.1992 21.5996 17.0992 21.5996 16.9992 21.5996C16.8992 21.5996 16.7992 21.5996 16.6992 21.5996C16.6992 21.6996 16.6992 21.7996 16.7992 21.8996C16.7992 21.9996 16.8992 22.0996 16.8992 22.1996C16.9992 22.3996 17.0992 22.4996 17.1992 22.5996C17.3992 22.8996 17.5992 23.0996 17.8992 23.2996C18.1992 23.4996 18.3992 23.5996 18.6992 23.6996C18.8992 23.6996 18.9992 23.7996 19.1992 23.7996C19.2992 23.7996 19.3992 23.7996 19.4992 23.7996C19.5992 23.7996 19.6992 23.7996 19.7992 23.7996C19.6992 23.6996 19.6992 23.5996 19.6992 23.4996Z" fill="#0796D6"/>
<path d="M13.4008 20C13.3008 20 13.2008 20 13.1008 20C13.0008 20 12.9008 20 12.8008 20C12.8008 20.1 12.9008 20.2 12.9008 20.3C12.9008 20.4 13.0008 20.5 13.0008 20.6C13.1008 20.8 13.2008 20.9 13.3008 21C13.5008 21.3 13.7008 21.5 14.0008 21.6C14.3008 21.8 14.5008 21.9 14.9008 22C15.1008 22 15.2008 22.1 15.4008 22.1C15.5008 22.1 15.6008 22.1 15.7008 22.1C15.8008 22.1 15.9008 22.1 16.0008 22.1C16.0008 22 15.9008 21.9 15.9008 21.8C15.9008 21.7 15.8008 21.6 15.8008 21.5C15.7008 21.3 15.6008 21.2 15.5008 21.1C15.3008 20.8 15.1008 20.6 14.8008 20.5C14.5008 20.3 14.2008 20.2 13.9008 20.1C13.8008 20.1 13.6008 20 13.4008 20Z" fill="#0796D6"/>
<path d="M15.5004 16.6996C15.6004 16.9996 15.7004 17.2996 15.9004 17.4996C16.1004 17.7996 16.3004 17.9996 16.6004 18.1996C16.7004 18.2996 16.9004 18.3996 17.0004 18.4996C17.1004 18.4996 17.2004 18.5996 17.3004 18.5996C17.4004 18.5996 17.5004 18.6996 17.6004 18.6996C17.6004 18.5996 17.6004 18.4996 17.6004 18.3996C17.6004 18.2996 17.6004 18.1996 17.6004 18.0996C17.6004 17.8996 17.5004 17.7996 17.5004 17.5996C17.4004 17.2996 17.3004 16.9996 17.1004 16.7996C16.9004 16.4996 16.7004 16.2996 16.4004 16.0996C16.3004 15.9996 16.1004 15.8996 16.0004 15.7996C15.9004 15.7996 15.8004 15.6996 15.7004 15.6996C15.6004 15.6996 15.5004 15.5996 15.4004 15.5996C15.4004 15.6996 15.4004 15.7996 15.4004 15.8996C15.4004 15.9996 15.4004 16.0996 15.4004 16.1996C15.4004 16.3996 15.5004 16.4996 15.5004 16.6996Z" fill="#0796D6"/>
<path d="M23.4008 17.7999C23.4008 17.6999 23.3008 17.5999 23.2008 17.5999C23.1008 17.4999 23.1008 17.3999 23.0008 17.3999C22.9008 17.4999 22.9008 17.5999 22.8008 17.5999C22.7008 17.6999 22.7008 17.7999 22.7008 17.7999C22.6008 17.9999 22.5008 18.0999 22.5008 18.2999C22.4008 18.5999 22.3008 18.8999 22.3008 19.1999C22.3008 19.4999 22.3008 19.7999 22.5008 20.0999C22.6008 20.2999 22.6008 20.3999 22.7008 20.5999C22.7008 20.6999 22.8008 20.7999 22.8008 20.7999C23.0008 20.8999 23.0008 20.9999 23.1008 20.9999C23.2008 20.8999 23.2008 20.7999 23.3008 20.7999C23.4008 20.6999 23.4008 20.5999 23.5008 20.5999C23.6008 20.3999 23.7008 20.2999 23.7008 20.0999C23.8008 19.7999 23.9008 19.4999 23.9008 19.1999C23.9008 18.8999 23.9008 18.5999 23.7008 18.2999C23.6008 18.0999 23.5008 17.8999 23.4008 17.7999Z" fill="#0796D6"/>
<path d="M14.9004 18.7997C14.9004 18.9997 15.0004 19.0997 15.1004 19.2997C15.2004 19.5997 15.4004 19.8997 15.6004 20.0997C15.8004 20.2997 16.0004 20.4997 16.3004 20.6997C16.4004 20.7997 16.6004 20.8997 16.8004 20.8997C16.9004 20.8997 17.0004 20.9997 17.1004 20.9997C17.2004 20.9997 17.3004 20.9997 17.4004 20.9997C17.4004 20.8997 17.4004 20.7997 17.4004 20.6997C17.4004 20.5997 17.4004 20.4997 17.4004 20.3997C17.4004 20.1997 17.3004 20.0997 17.2004 19.8997C17.1004 19.5997 16.9004 19.2997 16.7004 19.0997C16.5004 18.8997 16.3004 18.6997 16.0004 18.4997C15.9004 18.3997 15.7004 18.2997 15.5004 18.2997C15.4004 18.2997 15.3004 18.1997 15.2004 18.1997C15.1004 18.1997 15.0004 18.1997 14.9004 18.1997C14.9004 18.2997 14.9004 18.3997 14.9004 18.4997C14.9004 18.5997 14.9004 18.6997 14.9004 18.7997Z" fill="#0796D6"/>
<path d="M11.9008 17.7C12.0008 17.9 12.0008 18 12.1008 18.2C12.3008 18.5 12.5008 18.7 12.7008 18.9C12.9008 19.1 13.2008 19.3 13.5008 19.4C13.7008 19.5 13.8008 19.5 14.0008 19.5C14.1008 19.5 14.2008 19.5 14.3008 19.5C14.4008 19.5 14.5008 19.5 14.6008 19.5C14.6008 19.4 14.6008 19.3 14.6008 19.2C14.6008 19.1 14.6008 19 14.5008 18.9C14.4008 18.7 14.4008 18.6 14.3008 18.4C14.1008 18.1 13.9008 17.9 13.7008 17.7C13.5008 17.5 13.2008 17.3 12.9008 17.2C12.7008 17.1 12.6008 17.1 12.4008 17C12.3008 17 12.2008 17 12.1008 17C12.0008 17 11.9008 17 11.8008 17C11.8008 17.1 11.8008 17.2 11.8008 17.3C11.8008 17.6 11.8008 17.7 11.9008 17.7Z" fill="#0796D6"/>
<path d="M23.0996 28.1C21.9996 26.7 15.9996 28.1 6.59961 23.5C11.7996 27.9 16.9996 28.4 19.8996 28.9C21.3996 29.2 21.0996 35.2 20.2996 35.6H22.9996H25.6996C24.8996 35.2 24.5996 29.1 26.0996 28.9C29.0996 28.4 34.1996 27.8 39.3996 23.5C30.1996 28.1 24.1996 26.7 23.0996 28.1Z" fill="#0796D6"/>
<path d="M7.30078 22.7999C7.40078 22.8999 7.60078 22.9999 7.70078 23.0999C8.00078 23.2999 8.30078 23.3999 8.60078 23.4999C8.90078 23.5999 9.20078 23.5999 9.50078 23.5999C9.70078 23.5999 9.80078 23.4999 10.0008 23.4999C10.1008 23.4999 10.2008 23.3999 10.3008 23.3999C10.4008 23.3999 10.5008 23.2999 10.6008 23.2999C10.5008 23.1999 10.5008 23.0999 10.4008 23.0999C10.3008 22.9999 10.3008 22.9999 10.2008 22.8999C10.1008 22.7999 9.90078 22.6999 9.80078 22.5999C9.50078 22.3999 9.20078 22.2999 8.90078 22.2999C8.50078 21.9999 8.20078 21.8999 7.90078 21.9999C7.70078 21.9999 7.60078 22.0999 7.40078 22.0999C7.30078 22.0999 7.20078 22.1999 7.10078 22.1999C7.00078 22.1999 6.90078 22.2999 6.80078 22.2999C6.90078 22.3999 6.90078 22.4999 7.00078 22.4999C7.10078 22.5999 7.20078 22.6999 7.30078 22.7999Z" fill="#0796D6"/>
<path d="M9.00078 18.6C9.10078 18.8 9.20078 18.9 9.30078 19C9.50078 19.2 9.80078 19.4 10.0008 19.6C10.3008 19.8 10.6008 19.9 10.9008 19.9C11.1008 19.9 11.2008 20 11.4008 20C11.5008 20 11.6008 20 11.7008 20C11.8008 20 11.9008 20 12.0008 19.9C12.0008 19.8 11.9008 19.7 11.9008 19.6C11.9008 19.5 11.8008 19.4 11.8008 19.4C11.7008 19.2 11.6008 19.1 11.5008 19C11.3008 18.8 11.0008 18.6 10.8008 18.4C10.5008 18.2 10.2008 18.1 9.90078 18.1C9.70078 18.1 9.60078 18.1 9.40078 18C9.30078 18 9.20078 18 9.10078 18C9.00078 18 8.90078 18 8.80078 18C8.80078 18.1 8.90078 18.2 8.90078 18.3C8.90078 18.4 9.00078 18.5 9.00078 18.6Z" fill="#0796D6"/>
<path d="M15.9 14.1997C16.1 14.4997 16.3 14.6997 16.5 14.8997C16.6 14.9997 16.8 15.0997 16.9 15.1997C17 15.1997 17.1 15.2997 17.1 15.2997C17.2 15.2997 17.3 15.3997 17.4 15.3997C17.4 15.2997 17.4 15.1997 17.5 15.0997C17.5 14.9997 17.5 14.8997 17.5 14.7997C17.5 14.5997 17.5 14.4997 17.4 14.2997C17.3 13.9997 17.2 13.6997 17.1 13.3997C16.9 13.0997 16.7 12.8997 16.5 12.6997C16.4 12.5997 16.2 12.4997 16.1 12.3997C16 12.3997 15.9 12.2997 15.9 12.2997C15.8 12.2997 15.7 12.1997 15.6 12.1997C15.6 12.2997 15.6 12.3997 15.5 12.4997C15.5 12.5997 15.5 12.6997 15.5 12.7997C15.5 12.9997 15.5 13.0997 15.6 13.2997C15.6 13.5997 15.7 13.8997 15.9 14.1997Z" fill="#0796D6"/>
<path d="M19.3008 16.9999C19.2008 16.8999 19.1008 16.7999 18.9008 16.6999C18.8008 16.5999 18.7008 16.5999 18.7008 16.4999C18.6008 16.4999 18.5008 16.3999 18.4008 16.3999C18.4008 16.4999 18.3008 16.5999 18.3008 16.6999C18.3008 16.7999 18.3008 16.8999 18.3008 16.9999C18.3008 17.1999 18.3008 17.2999 18.3008 17.4999C18.3008 17.7999 18.4008 18.0999 18.5008 18.3999C18.6008 18.6999 18.8008 18.8999 19.0008 19.1999C19.1008 19.2999 19.2008 19.3999 19.4008 19.4999C19.5008 19.5999 19.6008 19.5999 19.6008 19.6999C19.7008 19.6999 19.8008 19.7999 19.9008 19.7999C19.9008 19.6999 20.0008 19.5999 20.0008 19.4999C20.0008 19.3999 20.0008 19.2999 20.0008 19.1999C20.0008 18.9999 20.0008 18.8999 20.0008 18.6999C20.0008 18.3999 19.9008 18.0999 19.8008 17.7999C19.7008 17.4999 19.6008 17.2999 19.3008 16.9999Z" fill="#0796D6"/>
<path d="M20.9992 15.0996C20.8992 15.1996 20.8992 15.2996 20.8992 15.3996C20.8992 15.4996 20.7992 15.5996 20.7992 15.6996C20.6992 15.8996 20.6992 15.9996 20.6992 16.1996C20.6992 16.4996 20.6992 16.7996 20.7992 17.0996C20.8992 17.3996 20.9992 17.6996 21.1992 17.9996C21.2992 18.0996 21.3992 18.2996 21.4992 18.3996C21.5992 18.4996 21.5992 18.4996 21.6992 18.5996C21.7992 18.6996 21.8992 18.6996 21.8992 18.7996C21.9992 18.6996 21.9992 18.5996 21.9992 18.4996C21.9992 18.3996 22.0992 18.2996 22.0992 18.1996C22.1992 17.9996 22.1992 17.8996 22.1992 17.6996C22.1992 17.3996 22.1992 17.0996 22.0992 16.7996C21.9992 16.4996 21.8992 16.1996 21.6992 15.8996C21.5992 15.7996 21.4992 15.5996 21.3992 15.4996C21.2992 15.3996 21.2992 15.3996 21.1992 15.2996C21.1992 15.1996 21.0992 15.0996 20.9992 15.0996Z" fill="#0796D6"/>
<path d="M16.2008 25.4997C16.3008 25.5997 16.5008 25.6997 16.6008 25.7997C16.9008 25.8997 17.2008 25.9997 17.5008 26.0997C17.8008 26.0997 18.1008 26.0997 18.4008 26.0997C18.6008 26.0997 18.7008 25.9997 18.9008 25.9997C19.0008 25.9997 19.1008 25.8997 19.2008 25.8997C19.3008 25.8997 19.4008 25.7997 19.5008 25.6997C19.4008 25.5997 19.4008 25.4997 19.3008 25.4997C19.2008 25.3997 19.2008 25.3997 19.1008 25.2997C19.0008 25.1997 18.8008 25.0997 18.7008 24.9997C18.4008 24.8997 18.1008 24.7997 17.8008 24.6997C17.5008 24.6997 17.2008 24.6997 16.9008 24.6997C16.7008 24.6997 16.6008 24.7997 16.4008 24.7997C16.3008 24.7997 16.2008 24.8997 16.1008 24.8997C16.0008 24.8997 15.9008 24.9997 15.8008 25.0997C15.9008 25.1997 15.9008 25.2997 16.0008 25.2997C16.0008 25.3997 16.1008 25.4997 16.2008 25.4997Z" fill="#0796D6"/>
<path d="M22.6008 16.2997C22.6008 16.3997 22.7008 16.4997 22.7008 16.4997C22.8008 16.5997 22.8008 16.6997 22.9008 16.6997C23.0008 16.5997 23.1008 16.5997 23.1008 16.4997C23.2008 16.3997 23.2008 16.3997 23.3008 16.2997C23.4008 16.1997 23.5008 15.9997 23.5008 15.8997C23.6008 15.5997 23.7008 15.2997 23.7008 14.9997C23.7008 14.6997 23.7008 14.3997 23.6008 14.0997C23.6008 13.8997 23.5008 13.7997 23.4008 13.5997C23.4008 13.4997 23.3008 13.3997 23.3008 13.3997C23.2008 13.2997 23.2008 13.1997 23.1008 13.1997C23.0008 13.2997 22.9008 13.2997 22.9008 13.3997C22.8008 13.4997 22.8008 13.4997 22.7008 13.5997C22.6008 13.6997 22.5008 13.8997 22.5008 13.9997C22.4008 14.2997 22.3008 14.5997 22.3008 14.8997C22.3008 15.1997 22.3008 15.4997 22.4008 15.7997C22.5008 15.8997 22.6008 16.0997 22.6008 16.2997Z" fill="#0796D6"/>
<path d="M20.3008 13.1998C20.4008 13.2998 20.5008 13.4998 20.6008 13.5998C20.7008 13.6998 20.7008 13.6998 20.8008 13.7998C20.9008 13.8998 20.9008 13.8998 21.0008 13.9998C21.1008 13.8998 21.1008 13.7998 21.2008 13.6998C21.2008 13.5998 21.3008 13.4998 21.3008 13.3998C21.4008 13.1998 21.4008 13.0998 21.4008 12.8998C21.5008 12.5998 21.5008 12.2998 21.4008 11.9998C21.4008 11.6998 21.3008 11.3998 21.1008 11.0998C21.0008 10.9998 20.9008 10.7998 20.8008 10.6998C20.7008 10.5998 20.7008 10.5998 20.6008 10.4998C20.5008 10.3998 20.5008 10.3998 20.4008 10.2998C20.3008 10.3998 20.3008 10.4998 20.2008 10.5998C20.2008 10.6998 20.1008 10.7998 20.1008 10.8998C20.0008 11.0998 20.0008 11.1998 20.0008 11.3998C19.9008 11.6998 19.9008 11.9998 20.0008 12.2998C20.0008 12.5998 20.1008 12.8998 20.3008 13.1998Z" fill="#0796D6"/>
<path d="M12.5992 22.4997C12.7992 22.4997 12.8992 22.4997 13.0992 22.4997C13.1992 22.4997 13.2992 22.4997 13.3992 22.3997C13.4992 22.3997 13.5992 22.2997 13.6992 22.2997C13.6992 22.1997 13.5992 22.0997 13.5992 21.9997C13.4992 21.8997 13.4992 21.7997 13.3992 21.7997C13.2992 21.6997 13.1992 21.4997 12.9992 21.3997C12.6992 21.1997 12.4992 20.9997 12.1992 20.8997C11.8992 20.7997 11.5992 20.6997 11.2992 20.6997C11.0992 20.6997 10.9992 20.6997 10.7992 20.6997C10.6992 20.6997 10.5992 20.6997 10.4992 20.7997C10.3992 20.7997 10.2992 20.8997 10.1992 20.8997C10.1992 20.9997 10.2992 21.0997 10.2992 21.1997C10.3992 21.2997 10.3992 21.3997 10.4992 21.3997C10.5992 21.4997 10.6992 21.6997 10.8992 21.7997C11.1992 21.9997 11.3992 22.1997 11.6992 22.2997C11.8992 22.3997 12.1992 22.4997 12.5992 22.4997Z" fill="#0796D6"/>
<path d="M15.6 24.1C15.9 24.2 16.2 24.3 16.5 24.3C16.7 24.3 16.8 24.3 17 24.3C17.1 24.3 17.2 24.3 17.3 24.2C17.4 24.2 17.5 24.1 17.6 24.1C17.6 24 17.5 23.9 17.4 23.8C17.3 23.7 17.3 23.6 17.2 23.6C17.1 23.5 17 23.3 16.8 23.2C16.5 23 16.3 22.8 16 22.7C15.7 22.6 15.4 22.5 15.1 22.5C14.9 22.5 14.8 22.5 14.6 22.5C14.5 22.5 14.4 22.5 14.3 22.6C14.2 22.6 14.1 22.7 14 22.7C14 22.8 14.1 22.9 14.2 23C14.3 23.1 14.3 23.2 14.4 23.2C14.5 23.3 14.6 23.5 14.8 23.6C15.1 23.8 15.4 24 15.6 24.1Z" fill="#0796D6"/>
<path d="M17.5 19.1997C17.5 19.2997 17.5 19.3997 17.5 19.4997C17.5 19.5997 17.5 19.6997 17.5 19.7997C17.5 19.9997 17.6 20.0997 17.6 20.2997C17.7 20.5997 17.9 20.8997 18.1 21.0997C18.3 21.2997 18.5 21.4997 18.8 21.6997C18.9 21.7997 19.1 21.8997 19.3 21.8997C19.4 21.8997 19.5 21.9997 19.6 21.9997C19.7 21.9997 19.8 21.9997 19.9 21.9997C19.9 21.8997 19.9 21.7997 19.9 21.6997C19.9 21.5997 19.9 21.4997 19.9 21.3997C19.9 21.1997 19.8 21.0997 19.8 20.8997C19.7 20.5997 19.5 20.2997 19.3 20.0997C19.1 19.8997 18.9 19.6997 18.6 19.4997C18.5 19.3997 18.3 19.2997 18.1 19.2997C18 19.2997 17.9 19.1997 17.8 19.1997C17.7 19.1997 17.7 19.1997 17.5 19.1997Z" fill="#0796D6"/>
<path d="M11.4 24.0999C11.5 24.1999 11.7 24.2999 11.8 24.3999C12.1 24.5999 12.4 24.6999 12.7 24.7999C13 24.8999 13.3 24.8999 13.6 24.8999C13.8 24.8999 13.9 24.8999 14.1 24.7999C14.2 24.7999 14.3 24.6999 14.4 24.6999C14.5 24.6999 14.6 24.5999 14.7 24.5999C14.6 24.4999 14.6 24.3999 14.5 24.3999C14.4 24.2999 14.4 24.2999 14.3 24.1999C14.2 24.0999 14 23.9999 13.9 23.8999C13.6 23.6999 13.3 23.5999 13 23.4999C12.7 23.3999 12.4 23.3999 12.1 23.3999C11.9 23.3999 11.8 23.3999 11.6 23.4999C11.5 23.4999 11.4 23.5999 11.3 23.5999C11.2 23.5999 11.1 23.6999 11 23.6999C11.1 23.7999 11.1 23.8999 11.2 23.8999C11.3 23.9999 11.4 24.0999 11.4 24.0999Z" fill="#0796D6"/>
<path d="M18.4992 15.2998C18.5992 15.5998 18.7992 15.7998 18.9992 16.0998C19.0992 16.1998 19.1992 16.2998 19.3992 16.3998C19.4992 16.4998 19.5992 16.4998 19.5992 16.4998C19.6992 16.4998 19.7992 16.5998 19.8992 16.5998C19.8992 16.4998 19.9992 16.3998 19.9992 16.2998C19.9992 16.1998 19.9992 16.0998 19.9992 15.9998C19.9992 15.7998 19.9992 15.6998 19.9992 15.4998C19.9992 15.1998 19.8992 14.8998 19.6992 14.5998C19.5992 14.2998 19.3992 14.0998 19.1992 13.7998C19.0992 13.6998 18.9992 13.5998 18.7992 13.4998C18.6992 13.3998 18.5992 13.3998 18.5992 13.3998C18.4992 13.3998 18.3992 13.2998 18.2992 13.2998C18.2992 13.3998 18.1992 13.4998 18.1992 13.5998C18.1992 13.6998 18.1992 13.7998 18.1992 13.8998C18.1992 14.0998 18.1992 14.1998 18.1992 14.3998C18.2992 14.6998 18.3992 14.9998 18.4992 15.2998Z" fill="#0796D6"/>
<path d="M58.3 18.9001C57.8 20.5001 57.6 22.4001 57.6 24.6001C57.6 25.1001 57.6 25.6001 57.6 26.2001C57.6 26.8001 57.7 27.3001 57.7 27.9001C57.9 29.2001 58.2 30.3001 58.7 31.4001C59.2 32.5001 60.1 33.0001 61.3 33.1001H61.4C61.4 33.1001 61.4 33.1001 61.5 33.1001C62.8 33.1001 63.7 32.6001 64.3 31.6001C64.8 30.6001 65.2 29.5001 65.3 28.2001C65.4 27.7001 65.4 27.2001 65.4 26.7001C65.4 26.2001 65.4 25.8001 65.4 25.3001V23.9001C65.4 23.5001 65.4 23.0001 65.4 22.5001C65.4 22.0001 65.3 21.4001 65.2 20.9001C65 19.9001 64.7 18.9001 64.1 18.0001C63.6 17.1001 62.7 16.6001 61.5 16.5001C59.8 16.6001 58.7 17.3001 58.3 18.9001ZM66 17.8001C66.7 19.5001 67.1 21.7001 67.1 24.6001C67.1 25.1001 67.1 25.7001 67.1 26.4001C67.1 27.0001 67 27.7001 67 28.3001C66.8 29.8001 66.3 31.2001 65.6 32.5001C64.8 33.8001 63.5 34.4001 61.5 34.4001C59.6 34.4001 58.3 33.7001 57.6 32.4001C56.9 31.1001 56.5 29.6001 56.3 28.0001C56 27.4001 56 26.8001 56 26.2001C56 25.6001 56 25.0001 56 24.5001C56 24.4001 56 24.3001 56 24.2001C56 24.1001 56 24.0001 56 23.9001C56 23.8001 56 23.7001 56 23.5001C56 23.4001 56 23.2001 56 23.1001C56 22.7001 56 22.2001 56 21.7001C56 21.2001 56.1 20.7001 56.2 20.2001C56.4 19.0001 56.9 17.8001 57.7 16.8001C58.5 15.8001 59.8 15.2001 61.6 15.1001C63.8 15.3001 65.3 16.2001 66 17.8001Z" fill="#0796D6"/>
<path d="M70.8008 15.3999H73.0008L77.0008 24.2999L79.7008 31.3999V15.3999H81.5008V34.0999H79.5008L72.6008 17.9999V34.0999H70.8008V15.3999Z" fill="#0796D6"/>
<path d="M94.2 15.3999V17.1999H87.5V23.2999H93.5V24.9999H87.5V32.2999H94.2V33.9999H85.5V15.3999H94.2Z" fill="#0796D6"/>
<path d="M98 28.6002C98.2 30.1002 98.6 31.1002 99.2 31.8002C99.8 32.5002 100.6 32.9002 101.7 32.9002C101.8 32.9002 101.9 32.9002 102 32.9002C102.1 32.9002 102.2 32.9002 102.3 32.9002C103 32.8002 103.7 32.4002 104.3 31.8002C104.9 31.2002 105.2 30.3002 105.2 29.2002V28.5002C105.1 27.7002 104.8 27.2002 104.2 26.8002C103.6 26.4002 102.9 26.0002 102.1 25.7002C101.9 25.6002 101.8 25.6002 101.6 25.5002C101.4 25.4002 101.2 25.3002 101.1 25.3002C100 24.9002 99.1 24.3002 98.2 23.5002C97.3 22.8002 96.9 21.6002 96.9 20.0002C96.9 19.9002 96.9 19.9002 96.9 19.8002C96.9 19.7002 96.9 19.6002 96.9 19.6002V19.5002C96.9 19.5002 96.9 19.5002 96.9 19.4002C96.9 19.3002 96.9 19.3002 96.9 19.2002C96.9 19.1002 96.9 19.1002 96.9 19.0002C97 17.8002 97.5 16.8002 98.4 16.2002C99.3 15.6002 100.3 15.3002 101.3 15.2002H101.6C101.7 15.2002 101.8 15.2002 101.9 15.2002C103 15.3002 104.1 15.7002 105 16.5002C105.9 17.3002 106.4 18.3002 106.5 19.7002H104.7C104.7 18.8002 104.4 18.1002 103.8 17.5002C103.2 16.9002 102.5 16.5002 101.7 16.4002C101.6 16.4002 101.5 16.4002 101.5 16.4002C101.4 16.4002 101.3 16.4002 101.3 16.4002C100.6 16.4002 100 16.6002 99.5 17.1002C98.9 17.6002 98.6 18.4002 98.5 19.5002V19.6002V19.7002C98.5 19.8002 98.5 19.8002 98.5 19.9002V20.0002C98.5 21.2002 98.9 22.1002 99.7 22.6002C100.5 23.1002 101.4 23.6002 102.4 24.0002C102.5 24.0002 102.5 24.1002 102.6 24.1002C102.7 24.1002 102.7 24.1002 102.8 24.2002C103.8 24.6002 104.8 25.1002 105.7 25.8002C106.6 26.4002 107 27.4002 107.1 28.9002V29.0002C107.1 30.7002 106.6 32.1002 105.5 33.0002C104.4 33.9002 103.3 34.4002 102 34.5002H101.8H101.6C100.3 34.5002 99.1 34.0002 98.1 33.1002C97 32.2002 96.5 30.8002 96.5 28.9002V28.8002C96.5 28.8002 96.5 28.8002 96.5 28.7002V28.6002V28.5002L98 28.6002Z" fill="#0796D6"/>
<path d="M119.201 15.3999V17.1999H114.901V34.0999H113.101V17.1999H108.801V15.3999H119.201Z" fill="#0796D6"/>
<path d="M124 18.9C123.5 20.5 123.3 22.4 123.3 24.6C123.3 25.1 123.3 25.6 123.3 26.2C123.3 26.8 123.4 27.3 123.4 27.9C123.6 29.2 123.9 30.3 124.4 31.4C124.9 32.5 125.8 33 127 33.1H127.1C127.1 33.1 127.1 33.1 127.2 33.1C128.5 33.1 129.4 32.6 130 31.6C130.5 30.6 130.9 29.5 131 28.2C131.1 27.7 131.1 27.2 131.1 26.7C131.1 26.2 131.1 25.8 131.1 25.3V23.9C131.1 23.5 131.1 23 131.1 22.5C131.1 22 131 21.4 130.9 20.9C130.7 19.9 130.4 18.9 129.8 18C129.3 17.1 128.4 16.6 127.2 16.5C125.6 16.6 124.5 17.3 124 18.9ZM131.8 17.8C132.5 19.5 132.9 21.7 132.9 24.6C132.9 25.1 132.9 25.7 132.9 26.4C132.9 27 132.8 27.7 132.8 28.3C132.6 29.8 132.1 31.2 131.4 32.5C130.6 33.8 129.3 34.4 127.3 34.4C125.4 34.4 124.1 33.7 123.4 32.4C122.7 31.1 122.3 29.6 122.1 28C122 27.4 122 26.7 122 26.1C122 25.5 122 24.9 122 24.4C122 24.3 122 24.2 122 24.1C122 24 122 23.9 122 23.8C122 23.7 122 23.6 122 23.4C122 23.3 122 23.1 122 23C122 22.6 122 22.1 122 21.6C122 21.1 122.1 20.6 122.2 20.1C122.4 18.9 122.9 17.7 123.7 16.7C124.5 15.7 125.8 15.1 127.6 15C129.6 15.3 131 16.2 131.8 17.8Z" fill="#0796D6"/>
<path d="M138.7 24.0999H141.5C142.7 24.0999 143.6 23.6999 144.2 22.9999C144.8 22.2999 145.2 21.4999 145.2 20.5999V20.4999V20.3999V20.2999V20.1999C145.1 19.3999 144.8 18.5999 144.2 17.8999C143.6 17.1999 142.7 16.8999 141.6 16.8999H138.6V24.0999H138.7ZM141.3 15.3999C143.3 15.3999 144.7 15.8999 145.6 16.8999C146.5 17.8999 146.9 18.9999 146.9 20.0999V20.3999C146.9 20.4999 146.9 20.5999 146.9 20.5999C146.8 21.8999 146.2 22.9999 145.2 24.0999C144.2 25.0999 142.8 25.6999 141.1 25.6999H138.7V34.0999H137V15.3999H141.3Z" fill="#0796D6"/>
<path d="M55.9004 39.7998H62.1004L67.0004 54.5998L66.2004 39.7998H72.2004V65.2998H65.9004L61.0004 51.0998L61.8004 65.2998H55.9004V39.7998Z" fill="#103977"/>
<path d="M85.3008 60.3998C86.0008 60.0998 86.4008 59.3998 86.4008 58.1998V46.4998C86.4008 45.4998 86.1008 44.8998 85.5008 44.5998C84.9008 44.2998 84.2008 44.0998 83.5008 44.0998H83.0008H82.6008V60.8998C83.7008 60.7998 84.6008 60.6998 85.3008 60.3998ZM76.3008 39.7998H83.4008C86.8008 39.7998 89.1008 40.1998 90.5008 40.8998C91.9008 41.6998 92.6008 43.1998 92.6008 45.5998V59.0998C92.6008 60.9998 92.0008 62.4998 90.8008 63.5998C89.6008 64.6998 87.6008 65.2998 84.8008 65.2998H76.4008V39.7998H76.3008Z" fill="#103977"/>
<path d="M100.2 44.8998H95.4004V39.7998H111V44.8998H106.5V65.3998H100.2V44.8998Z" fill="#103977"/>
</g>
<defs>
<clipPath id="clip0_799_12204">
<rect width="147" height="66" fill="white"/>
</clipPath>
</defs>
</svg>
